<?xml version="1.0" encoding="utf-8"?>
<!-- Generator: Adobe Illustrator 22.1.0, SVG Export Plug-In . SVG Version: 6.00 Build 0)  -->
<svg version="1.1" id="Layer_1" xmlns="http://www.w3.org/2000/svg" xmlns:xlink="http://www.w3.org/1999/xlink" x="0px" y="0px"
	 viewBox="0 0 48 48" style="enable-background:new 0 0 48 48;" xml:space="preserve">
<style type="text/css">
	.st0{fill:#222222;}
</style>
<path class="st0" d="M3.6,48c-1,0-1.8-0.4-2.5-1.1C0.4,46.2,0,45.4,0,44.4V18c0-1,0.4-1.8,1.1-2.5c0.7-0.7,1.6-1.1,2.5-1.1h6V0h18
	v8.7H13.2v19.1h3.6V14.4h27.6c1,0,1.8,0.4,2.5,1.1C47.6,16.2,48,17,48,18v26.4c0,1-0.4,1.8-1.1,2.5c-0.7,0.7-1.6,1.1-2.5,1.1H3.6z"
	/>
</svg>
