<?xml version="1.0" encoding="utf-8"?>
<!-- Generator: Adobe Illustrator 22.1.0, SVG Export Plug-In . SVG Version: 6.00 Build 0)  -->
<svg version="1.1" id="Layer_1" xmlns="http://www.w3.org/2000/svg" xmlns:xlink="http://www.w3.org/1999/xlink" x="0px" y="0px"
	 viewBox="0 0 48 48" style="enable-background:new 0 0 48 48;" xml:space="preserve">
<style type="text/css">
	.st0{fill:#222222;}
</style>
<path class="st0" d="M14.3,37.8h19.3v-3.6H14.3L14.3,37.8z M14.3,27.6h19.3V24H14.3L14.3,27.6z M8.4,48c-1,0-1.8-0.4-2.5-1.1
	c-0.7-0.7-1.1-1.6-1.1-2.5V3.6c0-1,0.4-1.8,1.1-2.5C6.6,0.4,7.4,0,8.4,0h21.7l13.1,13.1v31.3c0,1-0.4,1.8-1.1,2.5
	c-0.7,0.7-1.6,1.1-2.5,1.1H8.4z M28.3,14.8h11.3L28.3,3.6V14.8z"/>
</svg>
